<svg viewBox="0 0 44 44" width="20px" style="fill:rgb(0,0,0);"><path d="m22,0c-12.2,0-22,9.8-22,22s9.8,22 22,22 22-9.8 22-22-9.8-22-22-22zm-4,30h1c0.6,0 1,0.4 1,1v2c0,0.6-0.4,1-1,1h-8c-0.6,0-1-0.4-1-1v-8c0-0.6 0.4-1 1-1h2c0.6,0 1,0.4 1,1v1c0,0.4 0.5,0.7 0.9,0.4l2-2c0.4-0.4 1-0.4 1.4,0l1.4,1.4c0.4,0.4 0.4,1 0,1.4l-2,2c-0.3,0.3-0.1,0.8 0.3,0.8zm2-17c0,0.6-0.4,1-1,1h-1c-0.4,0-0.7,0.5-0.4,0.9l2,2c0.4,0.4 0.4,1 0,1.4l-1.4,1.4c-0.4,0.4-1,0.4-1.4,0l-2-2c-0.3-0.3-0.9-0.1-0.9,0.4v1c0,0.6-0.4,1-1,1h-2c-0.6,0-1-0.4-1-1v-8c0-0.6 0.4-1 1-1h8c0.6,0 1,0.4 1,1v1.9h0.1zm14,20c0,0.6-0.4,1-1,1h-8c-0.6,0-1-0.4-1-1v-2c0-0.6 0.4-1 1-1h1c0.4,0 0.7-0.5 0.4-0.9l-2-2c-0.4-0.4-0.4-1 0-1.4l1.4-1.4c0.4-0.4 1-0.4 1.4,0l2,2c0.3,0.3 0.9,0.1 0.9-0.4v-1c0-0.6 0.4-1 1-1h2c0.6,0 1,0.4 1,1v8.1h-0.1zm0-14c0,0.6-0.4,1-1,1h-2c-0.6,0-1-0.4-1-1v-1c0-0.4-0.5-0.7-0.9-0.4l-2,2c-0.4,0.4-1,0.4-1.4,0l-1.4-1.4c-0.4-0.4-0.4-1 0-1.4l2-2c0.3-0.3 0.1-0.9-0.4-0.9h-1c-0.6,0-1-0.4-1-1v-2c0-0.6 0.4-1 1-1h8c0.6,0 1,0.4 1,1v8.1h0.1z" style="fill:rgb(0,0,0);"></path></svg>
